<?xml version="1.0" encoding="UTF-8" standalone="no"?>
<!DOCTYPE svg PUBLIC "-//W3C//DTD SVG 1.1//EN" "http://www.w3.org/Graphics/SVG/1.1/DTD/svg11.dtd">
<svg xmlns="http://www.w3.org/2000/svg" version="1.1" viewBox="0.00 0.00 115.00 115.00">
<path fill="#377072" d="
  M 114.31 57.67
  A 56.89 56.89 0.0 0 1 57.42 114.56
  A 56.89 56.89 0.0 0 1 0.53 57.67
  A 56.89 56.89 0.0 0 1 57.42 0.78
  A 56.89 56.89 0.0 0 1 114.31 57.67
  Z"
/>
<path fill="#f1fbff" d="
  M 57.50 25.00
  L 44.50 25.00
  A 1.0 1.0 0.0 0 0 43.60 25.60
  L 24.00 82.00
  A 0.5 0.5 0.0 0 0 24.47 82.65
  L 37.00 82.65
  A 1.0 1.0 0.0 0 0 37.95 81.90
  L 41.50 70.00
  L 73.50 70.00
  L 77.05 81.90
  A 1.0 1.0 0.0 0 0 78.00 82.65
  L 90.53 82.65
  A 0.5 0.5 0.0 0 0 91.00 82.00
  L 71.40 25.60
  A 1.0 1.0 0.0 0 0 70.50 25.00
  Z
  M 46.50 57.50
  L 57.50 40.00
  L 68.50 57.50
  Z"
/>
</svg>
